G04*
G04 #@! TF.GenerationSoftware,Altium Limited,Altium Designer,26.5.1 (12)*
G04*
G04 Layer_Color=8388736*
G04 Board_Origin=0|0*
%FSLAX44Y44*%
%MOMM*%
G71*
G04*
G04 #@! TF.SameCoordinates,5ACCF5A6-FD12-4742-86FB-7746C86DDA38*
G04*
G04*
G04 #@! TF.FilePolarity,Negative*
G04*
G01*
G75*
G04:AMPARAMS|DCode=15|XSize=0.6111mm|YSize=0.2925mm|CornerRadius=0.1462mm|HoleSize=0mm|Usage=FLASHONLY|Rotation=0.000|XOffset=0mm|YOffset=0mm|HoleType=Round|Shape=RoundedRectangle|*
%AMROUNDEDRECTD15*
21,1,0.6111,0.0000,0,0,0.0*
21,1,0.3186,0.2925,0,0,0.0*
1,1,0.2925,0.1593,0.0000*
1,1,0.2925,-0.1593,0.0000*
1,1,0.2925,-0.1593,0.0000*
1,1,0.2925,0.1593,0.0000*
%
%ADD15ROUNDEDRECTD15*%
%ADD16R,0.6111X0.2925*%
%ADD17R,0.9500X1.4000*%
G04:AMPARAMS|DCode=18|XSize=1.31mm|YSize=0.62mm|CornerRadius=0.0775mm|HoleSize=0mm|Usage=FLASHONLY|Rotation=180.000|XOffset=0mm|YOffset=0mm|HoleType=Round|Shape=RoundedRectangle|*
%AMROUNDEDRECTD18*
21,1,1.3100,0.4650,0,0,180.0*
21,1,1.1550,0.6200,0,0,180.0*
1,1,0.1550,-0.5775,0.2325*
1,1,0.1550,0.5775,0.2325*
1,1,0.1550,0.5775,-0.2325*
1,1,0.1550,-0.5775,-0.2325*
%
%ADD18ROUNDEDRECTD18*%
G04:AMPARAMS|DCode=19|XSize=1.0043mm|YSize=0.8721mm|CornerRadius=0.4361mm|HoleSize=0mm|Usage=FLASHONLY|Rotation=0.000|XOffset=0mm|YOffset=0mm|HoleType=Round|Shape=RoundedRectangle|*
%AMROUNDEDRECTD19*
21,1,1.0043,0.0000,0,0,0.0*
21,1,0.1322,0.8721,0,0,0.0*
1,1,0.8721,0.0661,0.0000*
1,1,0.8721,-0.0661,0.0000*
1,1,0.8721,-0.0661,0.0000*
1,1,0.8721,0.0661,0.0000*
%
%ADD19ROUNDEDRECTD19*%
G04:AMPARAMS|DCode=20|XSize=1.0043mm|YSize=3.1821mm|CornerRadius=0.4369mm|HoleSize=0mm|Usage=FLASHONLY|Rotation=0.000|XOffset=0mm|YOffset=0mm|HoleType=Round|Shape=RoundedRectangle|*
%AMROUNDEDRECTD20*
21,1,1.0043,2.3084,0,0,0.0*
21,1,0.1306,3.1821,0,0,0.0*
1,1,0.8737,0.0653,-1.1542*
1,1,0.8737,-0.0653,-1.1542*
1,1,0.8737,-0.0653,1.1542*
1,1,0.8737,0.0653,1.1542*
%
%ADD20ROUNDEDRECTD20*%
%ADD21R,1.0043X0.8721*%
%ADD23R,0.9200X1.3800*%
G04:AMPARAMS|DCode=24|XSize=1.21mm|YSize=0.59mm|CornerRadius=0.0738mm|HoleSize=0mm|Usage=FLASHONLY|Rotation=0.000|XOffset=0mm|YOffset=0mm|HoleType=Round|Shape=RoundedRectangle|*
%AMROUNDEDRECTD24*
21,1,1.2100,0.4425,0,0,0.0*
21,1,1.0625,0.5900,0,0,0.0*
1,1,0.1475,0.5313,-0.2213*
1,1,0.1475,-0.5313,-0.2213*
1,1,0.1475,-0.5313,0.2213*
1,1,0.1475,0.5313,0.2213*
%
%ADD24ROUNDEDRECTD24*%
%ADD25R,1.3000X1.5000*%
G04:AMPARAMS|DCode=26|XSize=1.397mm|YSize=1.016mm|CornerRadius=0.127mm|HoleSize=0mm|Usage=FLASHONLY|Rotation=0.000|XOffset=0mm|YOffset=0mm|HoleType=Round|Shape=RoundedRectangle|*
%AMROUNDEDRECTD26*
21,1,1.3970,0.7620,0,0,0.0*
21,1,1.1430,1.0160,0,0,0.0*
1,1,0.2540,0.5715,-0.3810*
1,1,0.2540,-0.5715,-0.3810*
1,1,0.2540,-0.5715,0.3810*
1,1,0.2540,0.5715,0.3810*
%
%ADD26ROUNDEDRECTD26*%
%ADD27R,1.2000X1.8000*%
%ADD28R,0.8000X0.8000*%
%ADD29R,1.4000X1.2000*%
%ADD30O,0.2500X1.5500*%
%ADD31O,0.3000X2.0000*%
G04:AMPARAMS|DCode=32|XSize=1.8052mm|YSize=0.618mm|CornerRadius=0.309mm|HoleSize=0mm|Usage=FLASHONLY|Rotation=0.000|XOffset=0mm|YOffset=0mm|HoleType=Round|Shape=RoundedRectangle|*
%AMROUNDEDRECTD32*
21,1,1.8052,0.0000,0,0,0.0*
21,1,1.1873,0.6180,0,0,0.0*
1,1,0.6180,0.5936,0.0000*
1,1,0.6180,-0.5936,0.0000*
1,1,0.6180,-0.5936,0.0000*
1,1,0.6180,0.5936,0.0000*
%
%ADD32ROUNDEDRECTD32*%
%ADD33O,1.5500X0.2500*%
%ADD34O,0.6000X1.6000*%
%ADD35R,0.5500X0.5700*%
%ADD37R,1.2000X1.4500*%
%ADD38R,1.8052X0.6180*%
%ADD39R,0.7000X1.2500*%
%ADD40R,1.5040X1.7040*%
%ADD41R,0.4000X1.2500*%
%ADD42R,1.5080X1.5080*%
%ADD43C,1.5080*%
%ADD44O,1.0000X1.8000*%
%ADD45O,1.0000X2.1000*%
%ADD46C,1.3700*%
%ADD47R,1.3700X1.3700*%
%ADD48C,0.6500*%
%ADD49C,1.2700*%
D15*
X450889Y143510D02*
D03*
X469900Y156510D02*
D03*
Y143510D02*
D03*
Y150010D02*
D03*
X450889D02*
D03*
D16*
Y156510D02*
D03*
D17*
X398420Y274320D02*
D03*
X416920D02*
D03*
X348890Y275590D02*
D03*
X367390D02*
D03*
X185060Y219710D02*
D03*
X404220Y88900D02*
D03*
X448670Y60960D02*
D03*
X503640Y59690D02*
D03*
X529040Y165100D02*
D03*
X472800Y339090D02*
D03*
X203560Y219710D02*
D03*
X510540Y165100D02*
D03*
X485140Y59690D02*
D03*
X454300Y339090D02*
D03*
X385720Y88900D02*
D03*
X430170Y60960D02*
D03*
D18*
X107120Y187960D02*
D03*
X162120Y162560D02*
D03*
X107120Y200660D02*
D03*
X162120Y175260D02*
D03*
X107120D02*
D03*
Y162560D02*
D03*
Y137160D02*
D03*
X162120D02*
D03*
X107120Y149860D02*
D03*
X162120Y124460D02*
D03*
Y187960D02*
D03*
Y200660D02*
D03*
X107120Y111760D02*
D03*
X162120Y149860D02*
D03*
Y111760D02*
D03*
X107120Y124460D02*
D03*
D19*
X15310Y179030D02*
D03*
Y201930D02*
D03*
D20*
X81210D02*
D03*
D21*
X15310Y224830D02*
D03*
D23*
X83210Y104140D02*
D03*
X81940Y127000D02*
D03*
X62840D02*
D03*
X64110Y104140D02*
D03*
D24*
X16660Y110490D02*
D03*
X41760D02*
D03*
X16660Y100990D02*
D03*
X41760D02*
D03*
X16660Y119990D02*
D03*
X41760D02*
D03*
D25*
X34290Y149860D02*
D03*
X32410Y255270D02*
D03*
X53290Y149860D02*
D03*
X51410Y255270D02*
D03*
D26*
X207010Y55880D02*
D03*
X281940Y146050D02*
D03*
X140970Y219710D02*
D03*
X252730Y151130D02*
D03*
X140970Y237490D02*
D03*
X207010Y73660D02*
D03*
X281940Y163830D02*
D03*
X252730Y168910D02*
D03*
D27*
X198820Y131130D02*
D03*
X222820Y171130D02*
D03*
Y131130D02*
D03*
X198820Y171130D02*
D03*
D28*
X207130Y312420D02*
D03*
X322820Y86360D02*
D03*
X344410Y39370D02*
D03*
X222130Y312420D02*
D03*
X337820Y86360D02*
D03*
X359410Y39370D02*
D03*
D29*
X274730Y216680D02*
D03*
X252730Y233680D02*
D03*
X274730D02*
D03*
X252730Y216680D02*
D03*
D30*
X374290Y155330D02*
D03*
X329290Y235830D02*
D03*
X344290D02*
D03*
X324290Y155330D02*
D03*
X329290D02*
D03*
X334290D02*
D03*
X339290D02*
D03*
X344290D02*
D03*
X349290D02*
D03*
X354290D02*
D03*
X359290D02*
D03*
X364290D02*
D03*
X369290D02*
D03*
X379290D02*
D03*
X374290Y235830D02*
D03*
X369290D02*
D03*
X364290D02*
D03*
X359290D02*
D03*
X354290D02*
D03*
X349290D02*
D03*
X339290D02*
D03*
X334290D02*
D03*
X324290D02*
D03*
X379290D02*
D03*
D31*
X433230Y192360D02*
D03*
X443230D02*
D03*
Y234360D02*
D03*
X438230D02*
D03*
X433230D02*
D03*
X453230D02*
D03*
X448230D02*
D03*
X453230Y192360D02*
D03*
X448230D02*
D03*
X438230D02*
D03*
D32*
X466015Y99060D02*
D03*
X489025Y108560D02*
D03*
Y99060D02*
D03*
Y89560D02*
D03*
X466015D02*
D03*
D33*
X311540Y188080D02*
D03*
X392040Y218080D02*
D03*
X311540Y193080D02*
D03*
Y223080D02*
D03*
Y218080D02*
D03*
Y213080D02*
D03*
Y208080D02*
D03*
Y203080D02*
D03*
Y198080D02*
D03*
Y183080D02*
D03*
Y178080D02*
D03*
Y173080D02*
D03*
Y168080D02*
D03*
X392040D02*
D03*
Y173080D02*
D03*
Y178080D02*
D03*
Y183080D02*
D03*
Y188080D02*
D03*
Y193080D02*
D03*
Y198080D02*
D03*
Y203080D02*
D03*
Y208080D02*
D03*
Y223080D02*
D03*
Y213080D02*
D03*
D34*
X534670Y301820D02*
D03*
Y373820D02*
D03*
X521970D02*
D03*
X509270Y301820D02*
D03*
X496570D02*
D03*
Y373820D02*
D03*
X521970Y301820D02*
D03*
X509270Y373820D02*
D03*
D35*
X295860Y287570D02*
D03*
X321360D02*
D03*
Y299170D02*
D03*
X295860D02*
D03*
D37*
X246540Y283210D02*
D03*
X266540D02*
D03*
X217010Y280670D02*
D03*
X197010D02*
D03*
X497840Y203200D02*
D03*
X517840D02*
D03*
X488950Y236220D02*
D03*
X508950D02*
D03*
X402590Y120650D02*
D03*
X382590D02*
D03*
X295910Y45720D02*
D03*
X275910D02*
D03*
D38*
X466015Y108560D02*
D03*
D39*
X19054Y76300D02*
D03*
X83054D02*
D03*
X75054D02*
D03*
X27054D02*
D03*
D40*
X160630Y71120D02*
D03*
X269240Y93980D02*
D03*
X250240D02*
D03*
X141630Y71120D02*
D03*
D41*
X33554Y76300D02*
D03*
X38554D02*
D03*
X68554D02*
D03*
X63554D02*
D03*
X48554D02*
D03*
X58554D02*
D03*
X53554D02*
D03*
X43554D02*
D03*
D42*
X77470Y337820D02*
D03*
D43*
X102870D02*
D03*
X128270D02*
D03*
X153670D02*
D03*
D44*
X7854Y28750D02*
D03*
X94254D02*
D03*
D45*
X7854Y70550D02*
D03*
X94254D02*
D03*
D46*
X579120Y276860D02*
D03*
Y99060D02*
D03*
Y124460D02*
D03*
Y175260D02*
D03*
Y149860D02*
D03*
Y73660D02*
D03*
Y226060D02*
D03*
Y200660D02*
D03*
Y251460D02*
D03*
D47*
Y302260D02*
D03*
D48*
X22154Y65550D02*
D03*
X79954D02*
D03*
D49*
X289814Y227330D02*
D03*
X294640Y194184D02*
D03*
X233680Y196850D02*
D03*
X327152Y210058D02*
D03*
X341308Y176276D02*
D03*
X327152Y178816D02*
D03*
X324358Y254026D02*
D03*
X335026Y265430D02*
D03*
X197010Y259936D02*
D03*
X567436Y165354D02*
D03*
X306578Y158750D02*
D03*
X561086Y146304D02*
D03*
X275910Y73914D02*
D03*
X360680Y118364D02*
D03*
X461772Y55880D02*
D03*
X412726Y148868D02*
D03*
X143256Y127000D02*
D03*
X515366Y113030D02*
D03*
X496316Y132842D02*
D03*
X316738Y139700D02*
D03*
X495808Y332486D02*
D03*
X390398Y247904D02*
D03*
X546354Y145542D02*
D03*
X335280Y134874D02*
D03*
X419608Y188000D02*
D03*
X226060Y148590D02*
D03*
X373380Y196342D02*
D03*
X391160Y231648D02*
D03*
X21590Y53340D02*
D03*
X69850Y149098D02*
D03*
X122936Y139954D02*
D03*
X56682Y53594D02*
D03*
X35052Y44450D02*
D03*
X134620Y175260D02*
D03*
X16510Y131826D02*
D03*
X415570Y208788D02*
D03*
X427736Y162052D02*
D03*
X528828Y70104D02*
D03*
X335280Y119380D02*
D03*
X355346Y212090D02*
D03*
X534670Y345948D02*
D03*
X479552Y300990D02*
D03*
X313436Y120650D02*
D03*
X16510Y159766D02*
D03*
X20574Y90170D02*
D03*
M02*
