G04*
G04 #@! TF.GenerationSoftware,Altium Limited,Altium Designer,26.5.1 (12)*
G04*
G04 Layer_Color=16711935*
G04 Board_Origin=0|0*
%FSLAX44Y44*%
%MOMM*%
G71*
G04*
G04 #@! TF.SameCoordinates,5ACCF5A6-FD12-4742-86FB-7746C86DDA38*
G04*
G04*
G04 #@! TF.FilePolarity,Negative*
G04*
G01*
G75*
%ADD42R,1.5080X1.5080*%
%ADD43C,1.5080*%
%ADD44O,1.0000X1.8000*%
%ADD45O,1.0000X2.1000*%
%ADD46C,1.3700*%
%ADD47R,1.3700X1.3700*%
%ADD48C,0.6500*%
%ADD49C,1.2700*%
D42*
X77470Y337820D02*
D03*
D43*
X102870D02*
D03*
X128270D02*
D03*
X153670D02*
D03*
D44*
X7854Y28750D02*
D03*
X94254D02*
D03*
D45*
X7854Y70550D02*
D03*
X94254D02*
D03*
D46*
X579120Y276860D02*
D03*
Y99060D02*
D03*
Y124460D02*
D03*
Y175260D02*
D03*
Y149860D02*
D03*
Y73660D02*
D03*
Y226060D02*
D03*
Y200660D02*
D03*
Y251460D02*
D03*
D47*
Y302260D02*
D03*
D48*
X22154Y65550D02*
D03*
X79954D02*
D03*
D49*
X289814Y227330D02*
D03*
X294640Y194184D02*
D03*
X233680Y196850D02*
D03*
X327152Y210058D02*
D03*
X341308Y176276D02*
D03*
X327152Y178816D02*
D03*
X324358Y254026D02*
D03*
X335026Y265430D02*
D03*
X197010Y259936D02*
D03*
X567436Y165354D02*
D03*
X306578Y158750D02*
D03*
X561086Y146304D02*
D03*
X275910Y73914D02*
D03*
X360680Y118364D02*
D03*
X461772Y55880D02*
D03*
X412726Y148868D02*
D03*
X143256Y127000D02*
D03*
X515366Y113030D02*
D03*
X496316Y132842D02*
D03*
X316738Y139700D02*
D03*
X495808Y332486D02*
D03*
X390398Y247904D02*
D03*
X546354Y145542D02*
D03*
X335280Y134874D02*
D03*
X419608Y188000D02*
D03*
X226060Y148590D02*
D03*
X373380Y196342D02*
D03*
X391160Y231648D02*
D03*
X21590Y53340D02*
D03*
X69850Y149098D02*
D03*
X122936Y139954D02*
D03*
X56682Y53594D02*
D03*
X35052Y44450D02*
D03*
X134620Y175260D02*
D03*
X16510Y131826D02*
D03*
X415570Y208788D02*
D03*
X427736Y162052D02*
D03*
X528828Y70104D02*
D03*
X335280Y119380D02*
D03*
X355346Y212090D02*
D03*
X534670Y345948D02*
D03*
X479552Y300990D02*
D03*
X313436Y120650D02*
D03*
X16510Y159766D02*
D03*
X20574Y90170D02*
D03*
M02*
