G04*
G04 #@! TF.GenerationSoftware,Altium Limited,Altium Designer,26.5.1 (12)*
G04*
G04 Layer_Color=65535*
G04 Board_Origin=0|0*
%FSLAX44Y44*%
%MOMM*%
G71*
G04*
G04 #@! TF.SameCoordinates,5ACCF5A6-FD12-4742-86FB-7746C86DDA38*
G04*
G04*
G04 #@! TF.FilePolarity,Positive*
G04*
G01*
G75*
%ADD10C,0.2500*%
%ADD11C,0.2000*%
%ADD12C,0.1270*%
%ADD13C,0.6000*%
%ADD14C,0.0500*%
D10*
X445084Y156510D02*
G03*
X445084Y156510I-1250J0D01*
G01*
X16560Y236930D02*
G03*
X16560Y236930I-1250J0D01*
G01*
X198569Y312420D02*
G03*
X198569Y312420I-1250J0D01*
G01*
X314259Y86360D02*
G03*
X314259Y86360I-1250J0D01*
G01*
X335849Y39370D02*
G03*
X335849Y39370I-1250J0D01*
G01*
X453239Y108560D02*
G03*
X453239Y108560I-1250J0D01*
G01*
X312790Y229830D02*
G03*
X312790Y229830I-1250J0D01*
G01*
X427480Y192360D02*
G03*
X427480Y192360I-1250J0D01*
G01*
D11*
X163120Y98660D02*
G03*
X163120Y98660I-1000J0D01*
G01*
X78470Y356320D02*
G03*
X78470Y356320I-1000J0D01*
G01*
X580120Y321460D02*
G03*
X580120Y321460I-1000J0D01*
G01*
X4660Y119940D02*
G03*
X4660Y119940I-1000J0D01*
G01*
X19554Y88750D02*
G03*
X19554Y88750I-1000J0D01*
G01*
X287610Y299370D02*
G03*
X287610Y299370I-1000J0D01*
G01*
X237320Y131130D02*
G03*
X237320Y131130I-1000J0D01*
G01*
X241730Y216680D02*
G03*
X241730Y216680I-1000J0D01*
G01*
X450394Y140010D02*
X470394D01*
X450394Y160010D02*
X470394D01*
X406920Y267070D02*
X408420D01*
X406920Y281570D02*
X408420D01*
X357390Y268340D02*
X358890D01*
X357390Y282840D02*
X358890D01*
X30735Y234455D02*
X65785D01*
Y169405D02*
Y234455D01*
X30735Y169405D02*
X65785D01*
X30735D02*
Y234455D01*
X591820Y60960D02*
Y314960D01*
X566420Y60960D02*
Y314960D01*
X591820D01*
X566420Y60960D02*
X591820D01*
X95754Y42750D02*
Y55250D01*
X6354Y42750D02*
Y55250D01*
X95754Y2750D02*
Y15550D01*
X6354Y2750D02*
Y15550D01*
X193560Y212460D02*
X195060D01*
X193560Y226960D02*
X195060D01*
X255540Y276960D02*
X257540D01*
X255540Y289460D02*
X257540D01*
X206070Y304610D02*
X223191D01*
X206070Y320230D02*
X223191D01*
X206010Y286920D02*
X208010D01*
X206010Y274420D02*
X208010D01*
X489120Y313070D02*
X542120D01*
Y362570D01*
X489120D02*
X542120D01*
X489120Y313070D02*
Y362570D01*
X506840Y196950D02*
X508840D01*
X506840Y209450D02*
X508840D01*
X519040Y172350D02*
X520540D01*
X519040Y157850D02*
X520540D01*
X497950Y229970D02*
X499950D01*
X497950Y242470D02*
X499950D01*
X391590Y126900D02*
X393590D01*
X391590Y114400D02*
X393590D01*
X284910Y51970D02*
X286910D01*
X284910Y39470D02*
X286910D01*
X321759Y78549D02*
X338881D01*
X321759Y94171D02*
X338881D01*
X343349Y31560D02*
X360471D01*
X343349Y47181D02*
X360471D01*
X463520Y82060D02*
X491520D01*
X463520Y116060D02*
X491520D01*
X493640Y66940D02*
X495140D01*
X493640Y52440D02*
X495140D01*
X323290Y167080D02*
Y224080D01*
X380290Y167080D02*
Y224080D01*
X323290D02*
X380290D01*
X323290Y167080D02*
X380290D01*
X438670Y53710D02*
X440170D01*
X438670Y68210D02*
X440170D01*
X462800Y331840D02*
X464300D01*
X462800Y346340D02*
X464300D01*
X394220Y81650D02*
X395720D01*
X394220Y96150D02*
X395720D01*
X458730Y206360D02*
Y220360D01*
X427730Y206360D02*
Y220360D01*
X458730D01*
X427730Y206360D02*
X458730D01*
D12*
X490620Y301820D02*
G03*
X490620Y301820I-1000J0D01*
G01*
Y302820D02*
G03*
X490620Y302820I-1000J0D01*
G01*
X491856Y301820D02*
G03*
X491856Y301820I-2236J0D01*
G01*
X498620Y319820D02*
G03*
X498620Y319820I-1000J0D01*
G01*
X497620D02*
G03*
X497620Y319820I-1000J0D01*
G01*
X498034D02*
G03*
X498034Y319820I-1414J0D01*
G01*
X498856D02*
G03*
X498856Y319820I-2236J0D01*
G01*
X499782D02*
G03*
X499782Y319820I-3162J0D01*
G01*
X116870Y206210D02*
X152370D01*
X116870Y106210D02*
X152370D01*
X64770Y325320D02*
Y350320D01*
X166370D01*
Y325320D02*
Y350320D01*
X64770Y325320D02*
X166370D01*
X42290Y143360D02*
X45290D01*
X42290Y156360D02*
X45290D01*
X21085Y94840D02*
X37335D01*
X21085Y126140D02*
X37335D01*
X70690Y120200D02*
X74090D01*
X70690Y133800D02*
X74090D01*
X71960Y97340D02*
X75360D01*
X71960Y110940D02*
X75360D01*
X132080Y212090D02*
X149860D01*
X132080D02*
Y245110D01*
X149860D01*
Y212090D02*
Y245110D01*
X301810Y302870D02*
X315410D01*
X301810Y283870D02*
X315410D01*
X208020Y126130D02*
X213620D01*
X208020Y176130D02*
X213620D01*
X194820Y143330D02*
Y158930D01*
X226820Y143330D02*
Y158930D01*
X215900Y48260D02*
Y81280D01*
X198120D02*
X215900D01*
X198120Y48260D02*
Y81280D01*
Y48260D02*
X215900D01*
X40410Y248770D02*
X43410D01*
X40410Y261770D02*
X43410D01*
X262930Y212680D02*
X264530D01*
X262930Y237680D02*
X264530D01*
X273050Y138430D02*
X290830D01*
X273050D02*
Y171450D01*
X290830D01*
Y138430D02*
Y171450D01*
X261620Y143510D02*
Y176530D01*
X243840D02*
X261620D01*
X243840Y143510D02*
Y176530D01*
Y143510D02*
X261620D01*
D13*
X336290Y214080D02*
G03*
X336290Y214080I-3000J0D01*
G01*
D14*
X477165Y167599D02*
Y163434D01*
X477998Y162601D01*
X479664D01*
X480497Y163434D01*
Y167599D01*
X485495D02*
X483829Y166766D01*
X482163Y165100D01*
Y163434D01*
X482996Y162601D01*
X484662D01*
X485495Y163434D01*
Y164267D01*
X484662Y165100D01*
X482163D01*
X397134Y300116D02*
X396301Y300949D01*
X394635D01*
X393802Y300116D01*
Y296784D01*
X394635Y295951D01*
X396301D01*
X397134Y296784D01*
X398800Y295951D02*
X400466D01*
X399633D01*
Y300949D01*
X398800Y300116D01*
X402966D02*
X403799Y300949D01*
X405465D01*
X406298Y300116D01*
Y296784D01*
X405465Y295951D01*
X403799D01*
X402966Y296784D01*
Y300116D01*
X356037D02*
X355204Y300949D01*
X353538D01*
X352705Y300116D01*
Y296784D01*
X353538Y295951D01*
X355204D01*
X356037Y296784D01*
X357703Y300949D02*
X361035D01*
Y300116D01*
X357703Y296784D01*
Y295951D01*
X105888Y218399D02*
Y214234D01*
X106721Y213401D01*
X108387D01*
X109220Y214234D01*
Y218399D01*
X110886Y213401D02*
X112552D01*
X111719D01*
Y218399D01*
X110886Y217566D01*
X74575Y238719D02*
Y234554D01*
X75408Y233721D01*
X77074D01*
X77907Y234554D01*
Y238719D01*
X82072Y233721D02*
Y238719D01*
X79573Y236220D01*
X82905D01*
X46157Y344129D02*
X44491D01*
X45324D01*
Y339964D01*
X44491Y339131D01*
X43658D01*
X42825Y339964D01*
X47823Y343296D02*
X48656Y344129D01*
X50322D01*
X51155Y343296D01*
Y342463D01*
X50322Y341630D01*
X49489D01*
X50322D01*
X51155Y340797D01*
Y339964D01*
X50322Y339131D01*
X48656D01*
X47823Y339964D01*
X578287Y52029D02*
X576621D01*
X577454D01*
Y47864D01*
X576621Y47031D01*
X575788D01*
X574955Y47864D01*
X583285Y47031D02*
X579953D01*
X583285Y50363D01*
Y51196D01*
X582452Y52029D01*
X580786D01*
X579953Y51196D01*
X39807Y136286D02*
X38974Y137119D01*
X37308D01*
X36475Y136286D01*
Y132954D01*
X37308Y132121D01*
X38974D01*
X39807Y132954D01*
X44805Y132121D02*
X41473D01*
X44805Y135453D01*
Y136286D01*
X43972Y137119D01*
X42306D01*
X41473Y136286D01*
X5995Y144739D02*
Y140574D01*
X6828Y139741D01*
X8494D01*
X9327Y140574D01*
Y144739D01*
X14325Y139741D02*
X10993D01*
X14325Y143073D01*
Y143906D01*
X13492Y144739D01*
X11826D01*
X10993Y143906D01*
X86838Y141011D02*
Y146009D01*
X89337D01*
X90170Y145176D01*
Y143510D01*
X89337Y142677D01*
X86838D01*
X88504D02*
X90170Y141011D01*
X91836D02*
X93502D01*
X92669D01*
Y146009D01*
X91836Y145176D01*
X96165Y95291D02*
Y100289D01*
X98664D01*
X99497Y99456D01*
Y97790D01*
X98664Y96957D01*
X96165D01*
X97831D02*
X99497Y95291D01*
X104495D02*
X101163D01*
X104495Y98623D01*
Y99456D01*
X103662Y100289D01*
X101996D01*
X101163Y99456D01*
X115570Y31709D02*
X113904D01*
X114737D01*
Y27544D01*
X113904Y26711D01*
X113071D01*
X112238Y27544D01*
X117236Y26711D02*
X118902D01*
X118069D01*
Y31709D01*
X117236Y30876D01*
X139700Y256936D02*
X138867Y257769D01*
X137201D01*
X136368Y256936D01*
Y253604D01*
X137201Y252771D01*
X138867D01*
X139700Y253604D01*
X141366Y252771D02*
X143032D01*
X142199D01*
Y257769D01*
X141366Y256936D01*
X193477Y241696D02*
X192644Y242529D01*
X190978D01*
X190145Y241696D01*
Y238364D01*
X190978Y237531D01*
X192644D01*
X193477Y238364D01*
X197642Y237531D02*
Y242529D01*
X195143Y240030D01*
X198475D01*
X309880Y330596D02*
X309047Y331429D01*
X307381D01*
X306548Y330596D01*
Y329763D01*
X307381Y328930D01*
X309047D01*
X309880Y328097D01*
Y327264D01*
X309047Y326431D01*
X307381D01*
X306548Y327264D01*
X311546Y326431D02*
X313212D01*
X312379D01*
Y331429D01*
X311546Y330596D01*
X249835Y301031D02*
Y306029D01*
X252334D01*
X253167Y305196D01*
Y303530D01*
X252334Y302697D01*
X249835D01*
X251501D02*
X253167Y301031D01*
X258165Y306029D02*
X254833D01*
Y303530D01*
X256499Y304363D01*
X257332D01*
X258165Y303530D01*
Y301864D01*
X257332Y301031D01*
X255666D01*
X254833Y301864D01*
X213838Y332699D02*
Y327701D01*
X216337D01*
X217170Y328534D01*
Y331866D01*
X216337Y332699D01*
X213838D01*
X218836Y327701D02*
X220502D01*
X219669D01*
Y332699D01*
X218836Y331866D01*
X167285Y281981D02*
Y286979D01*
X169784D01*
X170617Y286146D01*
Y284480D01*
X169784Y283647D01*
X167285D01*
X168951D02*
X170617Y281981D01*
X175615Y286979D02*
X173949Y286146D01*
X172283Y284480D01*
Y282814D01*
X173116Y281981D01*
X174782D01*
X175615Y282814D01*
Y283647D01*
X174782Y284480D01*
X172283D01*
X475895Y378419D02*
Y374254D01*
X476728Y373421D01*
X478394D01*
X479227Y374254D01*
Y378419D01*
X480893D02*
X484225D01*
Y377586D01*
X480893Y374254D01*
Y373421D01*
X472085Y199431D02*
Y204429D01*
X474584D01*
X475417Y203596D01*
Y201930D01*
X474584Y201097D01*
X472085D01*
X473751D02*
X475417Y199431D01*
X479582D02*
Y204429D01*
X477083Y201930D01*
X480415D01*
X516514Y150256D02*
X515681Y151089D01*
X514015D01*
X513182Y150256D01*
Y146924D01*
X514015Y146091D01*
X515681D01*
X516514Y146924D01*
X518180Y146091D02*
X519846D01*
X519013D01*
Y151089D01*
X518180Y150256D01*
X522346D02*
X523179Y151089D01*
X524845D01*
X525678Y150256D01*
Y149423D01*
X524845Y148590D01*
X524012D01*
X524845D01*
X525678Y147757D01*
Y146924D01*
X524845Y146091D01*
X523179D01*
X522346Y146924D01*
X482245Y254041D02*
Y259039D01*
X484744D01*
X485577Y258206D01*
Y256540D01*
X484744Y255707D01*
X482245D01*
X483911D02*
X485577Y254041D01*
X487243Y258206D02*
X488076Y259039D01*
X489742D01*
X490575Y258206D01*
Y257373D01*
X489742Y256540D01*
X488909D01*
X489742D01*
X490575Y255707D01*
Y254874D01*
X489742Y254041D01*
X488076D01*
X487243Y254874D01*
X388265Y137201D02*
Y142199D01*
X390764D01*
X391597Y141366D01*
Y139700D01*
X390764Y138867D01*
X388265D01*
X389931D02*
X391597Y137201D01*
X393263Y142199D02*
X396595D01*
Y141366D01*
X393263Y138034D01*
Y137201D01*
X207488Y194269D02*
Y193436D01*
X209154Y191770D01*
X210820Y193436D01*
Y194269D01*
X209154Y191770D02*
Y189271D01*
X212486D02*
X214152D01*
X213319D01*
Y194269D01*
X212486Y193436D01*
X206177Y39766D02*
X205344Y40599D01*
X203678D01*
X202845Y39766D01*
Y36434D01*
X203678Y35601D01*
X205344D01*
X206177Y36434D01*
X211175Y40599D02*
X207843D01*
Y38100D01*
X209509Y38933D01*
X210342D01*
X211175Y38100D01*
Y36434D01*
X210342Y35601D01*
X208676D01*
X207843Y36434D01*
X249814Y113426D02*
X248981Y114259D01*
X247315D01*
X246482Y113426D01*
Y110094D01*
X247315Y109261D01*
X248981D01*
X249814Y110094D01*
X251480Y109261D02*
X253146D01*
X252313D01*
Y114259D01*
X251480Y113426D01*
X258978Y109261D02*
X255646D01*
X258978Y112593D01*
Y113426D01*
X258145Y114259D01*
X256479D01*
X255646Y113426D01*
X281585Y19091D02*
Y24089D01*
X284084D01*
X284917Y23256D01*
Y21590D01*
X284084Y20757D01*
X281585D01*
X283251D02*
X284917Y19091D01*
X286583Y23256D02*
X287416Y24089D01*
X289082D01*
X289915Y23256D01*
Y22423D01*
X289082Y21590D01*
X289915Y20757D01*
Y19924D01*
X289082Y19091D01*
X287416D01*
X286583Y19924D01*
Y20757D01*
X287416Y21590D01*
X286583Y22423D01*
Y23256D01*
X287416Y21590D02*
X289082D01*
X327305Y69809D02*
Y64811D01*
X329804D01*
X330637Y65644D01*
Y68976D01*
X329804Y69809D01*
X327305D01*
X335635Y64811D02*
X332303D01*
X335635Y68143D01*
Y68976D01*
X334802Y69809D01*
X333136D01*
X332303Y68976D01*
X347625Y21549D02*
Y16551D01*
X350124D01*
X350957Y17384D01*
Y20716D01*
X350124Y21549D01*
X347625D01*
X352623Y20716D02*
X353456Y21549D01*
X355122D01*
X355955Y20716D01*
Y19883D01*
X355122Y19050D01*
X354289D01*
X355122D01*
X355955Y18217D01*
Y17384D01*
X355122Y16551D01*
X353456D01*
X352623Y17384D01*
X453035Y128229D02*
Y124064D01*
X453868Y123231D01*
X455534D01*
X456367Y124064D01*
Y128229D01*
X458033Y127396D02*
X458866Y128229D01*
X460532D01*
X461365Y127396D01*
Y126563D01*
X460532Y125730D01*
X461365Y124897D01*
Y124064D01*
X460532Y123231D01*
X458866D01*
X458033Y124064D01*
Y124897D01*
X458866Y125730D01*
X458033Y126563D01*
Y127396D01*
X458866Y125730D02*
X460532D01*
X493654Y41036D02*
X492821Y41869D01*
X491155D01*
X490322Y41036D01*
Y37704D01*
X491155Y36871D01*
X492821D01*
X493654Y37704D01*
X495320Y36871D02*
X496987D01*
X496153D01*
Y41869D01*
X495320Y41036D01*
X502818Y41869D02*
X499486D01*
Y39370D01*
X501152Y40203D01*
X501985D01*
X502818Y39370D01*
Y37704D01*
X501985Y36871D01*
X500319D01*
X499486Y37704D01*
X44887Y277256D02*
X44054Y278089D01*
X42388D01*
X41555Y277256D01*
Y273924D01*
X42388Y273091D01*
X44054D01*
X44887Y273924D01*
X49885Y278089D02*
X48219Y277256D01*
X46553Y275590D01*
Y273924D01*
X47386Y273091D01*
X49052D01*
X49885Y273924D01*
Y274757D01*
X49052Y275590D01*
X46553D01*
X254485Y256889D02*
Y256056D01*
X256151Y254390D01*
X257817Y256056D01*
Y256889D01*
X256151Y254390D02*
Y251891D01*
X262816D02*
X259483D01*
X262816Y255223D01*
Y256056D01*
X261982Y256889D01*
X260316D01*
X259483Y256056D01*
X422910Y260268D02*
Y256103D01*
X423743Y255270D01*
X425409D01*
X426242Y256103D01*
Y260268D01*
X431241D02*
X427908D01*
Y257769D01*
X429575Y258602D01*
X430407D01*
X431241Y257769D01*
Y256103D01*
X430407Y255270D01*
X428741D01*
X427908Y256103D01*
X300635Y246339D02*
Y242174D01*
X301468Y241341D01*
X303134D01*
X303967Y242174D01*
Y246339D01*
X305633Y245506D02*
X306466Y246339D01*
X308132D01*
X308965Y245506D01*
Y244673D01*
X308132Y243840D01*
X307299D01*
X308132D01*
X308965Y243007D01*
Y242174D01*
X308132Y241341D01*
X306466D01*
X305633Y242174D01*
X257434Y192166D02*
X256601Y192999D01*
X254935D01*
X254102Y192166D01*
Y188834D01*
X254935Y188001D01*
X256601D01*
X257434Y188834D01*
X259100Y188001D02*
X260767D01*
X259933D01*
Y192999D01*
X259100Y192166D01*
X266598Y192999D02*
X264932Y192166D01*
X263266Y190500D01*
Y188834D01*
X264099Y188001D01*
X265765D01*
X266598Y188834D01*
Y189667D01*
X265765Y190500D01*
X263266D01*
X281564Y129936D02*
X280731Y130769D01*
X279065D01*
X278232Y129936D01*
Y126604D01*
X279065Y125771D01*
X280731D01*
X281564Y126604D01*
X283230Y125771D02*
X284897D01*
X284063D01*
Y130769D01*
X283230Y129936D01*
X289895Y125771D02*
Y130769D01*
X287396Y128270D01*
X290728D01*
X430987Y342026D02*
X430154Y342859D01*
X428488D01*
X427655Y342026D01*
Y338694D01*
X428488Y337861D01*
X430154D01*
X430987Y338694D01*
X432654Y337861D02*
X434320D01*
X433487D01*
Y342859D01*
X432654Y342026D01*
X436819Y337861D02*
X438485D01*
X437652D01*
Y342859D01*
X436819Y342026D01*
X391597Y68976D02*
X390764Y69809D01*
X389098D01*
X388265Y68976D01*
Y65644D01*
X389098Y64811D01*
X390764D01*
X391597Y65644D01*
X393263D02*
X394096Y64811D01*
X395762D01*
X396595Y65644D01*
Y68976D01*
X395762Y69809D01*
X394096D01*
X393263Y68976D01*
Y68143D01*
X394096Y67310D01*
X396595D01*
X149027Y53736D02*
X148194Y54569D01*
X146528D01*
X145695Y53736D01*
Y50404D01*
X146528Y49571D01*
X148194D01*
X149027Y50404D01*
X150693Y53736D02*
X151526Y54569D01*
X153192D01*
X154025Y53736D01*
Y52903D01*
X153192Y52070D01*
X154025Y51237D01*
Y50404D01*
X153192Y49571D01*
X151526D01*
X150693Y50404D01*
Y51237D01*
X151526Y52070D01*
X150693Y52903D01*
Y53736D01*
X151526Y52070D02*
X153192D01*
X439857Y39766D02*
X439024Y40599D01*
X437358D01*
X436525Y39766D01*
Y36434D01*
X437358Y35601D01*
X439024D01*
X439857Y36434D01*
X441523Y39766D02*
X442356Y40599D01*
X444022D01*
X444855Y39766D01*
Y38933D01*
X444022Y38100D01*
X443189D01*
X444022D01*
X444855Y37267D01*
Y36434D01*
X444022Y35601D01*
X442356D01*
X441523Y36434D01*
M02*
