M48
;Layer_Color=9474304
;FILE_FORMAT=4:4
METRIC,LZ
;TYPE=PLATED
T02F00S00C0.7112
T03F00S00C1.0000
T04F00S00C1.0200
;TYPE=NON_PLATED
T05F00S00C0.6500
%
T02
X0002159Y0005334
X00035052Y0004445
X00056682Y00053594
X00020574Y0009017
X0001651Y00131826
Y00159766
X0006985Y00149098
X00122936Y00139954
X00143256Y00127
X0013462Y0017526
X0022606Y0014859
X0023368Y0019685
X0029464Y00194184
X00289814Y0022733
X00327152Y00210058
X00355346Y0021209
X0037338Y00196342
X00341308Y00176276
X00327152Y00178816
X00306578Y0015875
X00316738Y001397
X00313436Y0012065
X0033528Y0011938
Y00134874
X0036068Y00118364
X0027591Y00073914
X00324358Y00254026
X00335026Y0026543
X00390398Y00247904
X0039116Y00231648
X0019701Y00259936
X0041557Y00208788
X00419608Y00188
X00427736Y00162052
X00412726Y00148868
X00496316Y00132842
X00515366Y0011303
X00528828Y00070104
X00461772Y0005588
X00546354Y00145542
X00561086Y00146304
X00567436Y00165354
X0053467Y00345948
X00495808Y00332486
X00479552Y0030099
T03
X0007747Y0033782
X0010287
X0012827
X0015367
T04
X0057912Y0007366
Y0009906
Y0012446
Y0014986
Y0017526
Y0020066
Y0022606
Y0025146
Y0027686
Y0030226
T05
X00022154Y0006555
X00079954
M30
