G04*
G04 #@! TF.GenerationSoftware,Altium Limited,Altium Designer,26.5.1 (12)*
G04*
G04 Layer_Physical_Order=1*
G04 Layer_Color=255*
G04 Board_Origin=0|0*
%FSLAX44Y44*%
%MOMM*%
G71*
G04*
G04 #@! TF.SameCoordinates,5ACCF5A6-FD12-4742-86FB-7746C86DDA38*
G04*
G04*
G04 #@! TF.FilePolarity,Positive*
G04*
G01*
G75*
G04:AMPARAMS|DCode=15|XSize=0.6111mm|YSize=0.2925mm|CornerRadius=0.1462mm|HoleSize=0mm|Usage=FLASHONLY|Rotation=0.000|XOffset=0mm|YOffset=0mm|HoleType=Round|Shape=RoundedRectangle|*
%AMROUNDEDRECTD15*
21,1,0.6111,0.0000,0,0,0.0*
21,1,0.3186,0.2925,0,0,0.0*
1,1,0.2925,0.1593,0.0000*
1,1,0.2925,-0.1593,0.0000*
1,1,0.2925,-0.1593,0.0000*
1,1,0.2925,0.1593,0.0000*
%
%ADD15ROUNDEDRECTD15*%
%ADD16R,0.6111X0.2925*%
%ADD17R,0.9500X1.4000*%
G04:AMPARAMS|DCode=18|XSize=1.31mm|YSize=0.62mm|CornerRadius=0.0775mm|HoleSize=0mm|Usage=FLASHONLY|Rotation=180.000|XOffset=0mm|YOffset=0mm|HoleType=Round|Shape=RoundedRectangle|*
%AMROUNDEDRECTD18*
21,1,1.3100,0.4650,0,0,180.0*
21,1,1.1550,0.6200,0,0,180.0*
1,1,0.1550,-0.5775,0.2325*
1,1,0.1550,0.5775,0.2325*
1,1,0.1550,0.5775,-0.2325*
1,1,0.1550,-0.5775,-0.2325*
%
%ADD18ROUNDEDRECTD18*%
G04:AMPARAMS|DCode=19|XSize=1.0043mm|YSize=0.8721mm|CornerRadius=0.4361mm|HoleSize=0mm|Usage=FLASHONLY|Rotation=0.000|XOffset=0mm|YOffset=0mm|HoleType=Round|Shape=RoundedRectangle|*
%AMROUNDEDRECTD19*
21,1,1.0043,0.0000,0,0,0.0*
21,1,0.1322,0.8721,0,0,0.0*
1,1,0.8721,0.0661,0.0000*
1,1,0.8721,-0.0661,0.0000*
1,1,0.8721,-0.0661,0.0000*
1,1,0.8721,0.0661,0.0000*
%
%ADD19ROUNDEDRECTD19*%
G04:AMPARAMS|DCode=20|XSize=1.0043mm|YSize=3.1821mm|CornerRadius=0.4369mm|HoleSize=0mm|Usage=FLASHONLY|Rotation=0.000|XOffset=0mm|YOffset=0mm|HoleType=Round|Shape=RoundedRectangle|*
%AMROUNDEDRECTD20*
21,1,1.0043,2.3084,0,0,0.0*
21,1,0.1306,3.1821,0,0,0.0*
1,1,0.8737,0.0653,-1.1542*
1,1,0.8737,-0.0653,-1.1542*
1,1,0.8737,-0.0653,1.1542*
1,1,0.8737,0.0653,1.1542*
%
%ADD20ROUNDEDRECTD20*%
%ADD21R,1.0043X0.8721*%
%ADD22R,0.6000X1.1500*%
%ADD23R,0.9200X1.3800*%
G04:AMPARAMS|DCode=24|XSize=1.21mm|YSize=0.59mm|CornerRadius=0.0738mm|HoleSize=0mm|Usage=FLASHONLY|Rotation=0.000|XOffset=0mm|YOffset=0mm|HoleType=Round|Shape=RoundedRectangle|*
%AMROUNDEDRECTD24*
21,1,1.2100,0.4425,0,0,0.0*
21,1,1.0625,0.5900,0,0,0.0*
1,1,0.1475,0.5313,-0.2213*
1,1,0.1475,-0.5313,-0.2213*
1,1,0.1475,-0.5313,0.2213*
1,1,0.1475,0.5313,0.2213*
%
%ADD24ROUNDEDRECTD24*%
%ADD25R,1.3000X1.5000*%
G04:AMPARAMS|DCode=26|XSize=1.397mm|YSize=1.016mm|CornerRadius=0.127mm|HoleSize=0mm|Usage=FLASHONLY|Rotation=0.000|XOffset=0mm|YOffset=0mm|HoleType=Round|Shape=RoundedRectangle|*
%AMROUNDEDRECTD26*
21,1,1.3970,0.7620,0,0,0.0*
21,1,1.1430,1.0160,0,0,0.0*
1,1,0.2540,0.5715,-0.3810*
1,1,0.2540,-0.5715,-0.3810*
1,1,0.2540,-0.5715,0.3810*
1,1,0.2540,0.5715,0.3810*
%
%ADD26ROUNDEDRECTD26*%
%ADD27R,1.2000X1.8000*%
%ADD28R,0.8000X0.8000*%
%ADD29R,1.4000X1.2000*%
%ADD30O,0.2500X1.5500*%
%ADD31O,0.3000X2.0000*%
G04:AMPARAMS|DCode=32|XSize=1.8052mm|YSize=0.618mm|CornerRadius=0.309mm|HoleSize=0mm|Usage=FLASHONLY|Rotation=0.000|XOffset=0mm|YOffset=0mm|HoleType=Round|Shape=RoundedRectangle|*
%AMROUNDEDRECTD32*
21,1,1.8052,0.0000,0,0,0.0*
21,1,1.1873,0.6180,0,0,0.0*
1,1,0.6180,0.5936,0.0000*
1,1,0.6180,-0.5936,0.0000*
1,1,0.6180,-0.5936,0.0000*
1,1,0.6180,0.5936,0.0000*
%
%ADD32ROUNDEDRECTD32*%
%ADD33O,1.5500X0.2500*%
%ADD34O,0.6000X1.6000*%
%ADD35R,0.5500X0.5700*%
%ADD36R,0.3000X1.1500*%
%ADD37R,1.2000X1.4500*%
%ADD38R,1.8052X0.6180*%
%ADD42R,1.5080X1.5080*%
%ADD43C,1.5080*%
%ADD44O,1.0000X1.8000*%
%ADD45O,1.0000X2.1000*%
%ADD46C,1.3700*%
%ADD47R,1.3700X1.3700*%
%ADD48C,0.6500*%
%ADD49C,1.2700*%
%ADD50C,0.2540*%
D15*
X450889Y143510D02*
D03*
X469900Y156510D02*
D03*
Y143510D02*
D03*
Y150010D02*
D03*
X450889D02*
D03*
D16*
Y156510D02*
D03*
D17*
X398420Y274320D02*
D03*
X416920D02*
D03*
X348890Y275590D02*
D03*
X367390D02*
D03*
X185060Y219710D02*
D03*
X404220Y88900D02*
D03*
X448670Y60960D02*
D03*
X503640Y59690D02*
D03*
X529040Y165100D02*
D03*
X472800Y339090D02*
D03*
X203560Y219710D02*
D03*
X510540Y165100D02*
D03*
X485140Y59690D02*
D03*
X454300Y339090D02*
D03*
X385720Y88900D02*
D03*
X430170Y60960D02*
D03*
D18*
X107120Y187960D02*
D03*
X162120Y162560D02*
D03*
X107120Y200660D02*
D03*
X162120Y175260D02*
D03*
X107120D02*
D03*
Y162560D02*
D03*
Y137160D02*
D03*
X162120D02*
D03*
X107120Y149860D02*
D03*
X162120Y124460D02*
D03*
Y187960D02*
D03*
Y200660D02*
D03*
X107120Y111760D02*
D03*
X162120Y149860D02*
D03*
Y111760D02*
D03*
X107120Y124460D02*
D03*
D19*
X15310Y179030D02*
D03*
Y201930D02*
D03*
D20*
X81210D02*
D03*
D21*
X15310Y224830D02*
D03*
D22*
X19054Y76300D02*
D03*
X83054D02*
D03*
X75054D02*
D03*
X27054D02*
D03*
D23*
X83210Y104140D02*
D03*
X81940Y127000D02*
D03*
X62840D02*
D03*
X64110Y104140D02*
D03*
D24*
X16660Y110490D02*
D03*
X41760D02*
D03*
X16660Y100990D02*
D03*
X41760D02*
D03*
X16660Y119990D02*
D03*
X41760D02*
D03*
D25*
X34290Y149860D02*
D03*
X160630Y71120D02*
D03*
X269240Y93980D02*
D03*
X32410Y255270D02*
D03*
X53290Y149860D02*
D03*
X250240Y93980D02*
D03*
X51410Y255270D02*
D03*
X141630Y71120D02*
D03*
D26*
X207010Y55880D02*
D03*
X281940Y146050D02*
D03*
X140970Y219710D02*
D03*
X252730Y151130D02*
D03*
X140970Y237490D02*
D03*
X207010Y73660D02*
D03*
X281940Y163830D02*
D03*
X252730Y168910D02*
D03*
D27*
X198820Y131130D02*
D03*
X222820Y171130D02*
D03*
Y131130D02*
D03*
X198820Y171130D02*
D03*
D28*
X207130Y312420D02*
D03*
X322820Y86360D02*
D03*
X344410Y39370D02*
D03*
X222130Y312420D02*
D03*
X337820Y86360D02*
D03*
X359410Y39370D02*
D03*
D29*
X274730Y216680D02*
D03*
X252730Y233680D02*
D03*
X274730D02*
D03*
X252730Y216680D02*
D03*
D30*
X374290Y155330D02*
D03*
X329290Y235830D02*
D03*
X344290D02*
D03*
X324290Y155330D02*
D03*
X329290D02*
D03*
X334290D02*
D03*
X339290D02*
D03*
X344290D02*
D03*
X349290D02*
D03*
X354290D02*
D03*
X359290D02*
D03*
X364290D02*
D03*
X369290D02*
D03*
X379290D02*
D03*
X374290Y235830D02*
D03*
X369290D02*
D03*
X364290D02*
D03*
X359290D02*
D03*
X354290D02*
D03*
X349290D02*
D03*
X339290D02*
D03*
X334290D02*
D03*
X324290D02*
D03*
X379290D02*
D03*
D31*
X433230Y192360D02*
D03*
X443230D02*
D03*
Y234360D02*
D03*
X438230D02*
D03*
X433230D02*
D03*
X453230D02*
D03*
X448230D02*
D03*
X453230Y192360D02*
D03*
X448230D02*
D03*
X438230D02*
D03*
D32*
X466015Y99060D02*
D03*
X489025Y108560D02*
D03*
Y99060D02*
D03*
Y89560D02*
D03*
X466015D02*
D03*
D33*
X311540Y188080D02*
D03*
X392040Y218080D02*
D03*
X311540Y193080D02*
D03*
Y223080D02*
D03*
Y218080D02*
D03*
Y213080D02*
D03*
Y208080D02*
D03*
Y203080D02*
D03*
Y198080D02*
D03*
Y183080D02*
D03*
Y178080D02*
D03*
Y173080D02*
D03*
Y168080D02*
D03*
X392040D02*
D03*
Y173080D02*
D03*
Y178080D02*
D03*
Y183080D02*
D03*
Y188080D02*
D03*
Y193080D02*
D03*
Y198080D02*
D03*
Y203080D02*
D03*
Y208080D02*
D03*
Y223080D02*
D03*
Y213080D02*
D03*
D34*
X534670Y301820D02*
D03*
Y373820D02*
D03*
X521970D02*
D03*
X509270Y301820D02*
D03*
X496570D02*
D03*
Y373820D02*
D03*
X521970Y301820D02*
D03*
X509270Y373820D02*
D03*
D35*
X295860Y287570D02*
D03*
X321360D02*
D03*
Y299170D02*
D03*
X295860D02*
D03*
D36*
X33554Y76300D02*
D03*
X38554D02*
D03*
X68554D02*
D03*
X63554D02*
D03*
X48554D02*
D03*
X58554D02*
D03*
X53554D02*
D03*
X43554D02*
D03*
D37*
X246540Y283210D02*
D03*
X266540D02*
D03*
X217010Y280670D02*
D03*
X197010D02*
D03*
X497840Y203200D02*
D03*
X517840D02*
D03*
X488950Y236220D02*
D03*
X508950D02*
D03*
X402590Y120650D02*
D03*
X382590D02*
D03*
X295910Y45720D02*
D03*
X275910D02*
D03*
D38*
X466015Y108560D02*
D03*
D42*
X77470Y337820D02*
D03*
D43*
X102870D02*
D03*
X128270D02*
D03*
X153670D02*
D03*
D44*
X7854Y28750D02*
D03*
X94254D02*
D03*
D45*
X7854Y70550D02*
D03*
X94254D02*
D03*
D46*
X579120Y276860D02*
D03*
Y99060D02*
D03*
Y124460D02*
D03*
Y175260D02*
D03*
Y149860D02*
D03*
Y73660D02*
D03*
Y226060D02*
D03*
Y200660D02*
D03*
Y251460D02*
D03*
D47*
Y302260D02*
D03*
D48*
X22154Y65550D02*
D03*
X79954D02*
D03*
D49*
X289814Y227330D02*
D03*
X294640Y194184D02*
D03*
X233680Y196850D02*
D03*
X327152Y210058D02*
D03*
X341308Y176276D02*
D03*
X327152Y178816D02*
D03*
X324358Y254026D02*
D03*
X335026Y265430D02*
D03*
X197010Y259936D02*
D03*
X567436Y165354D02*
D03*
X306578Y158750D02*
D03*
X561086Y146304D02*
D03*
X275910Y73914D02*
D03*
X360680Y118364D02*
D03*
X461772Y55880D02*
D03*
X412726Y148868D02*
D03*
X143256Y127000D02*
D03*
X515366Y113030D02*
D03*
X496316Y132842D02*
D03*
X316738Y139700D02*
D03*
X495808Y332486D02*
D03*
X390398Y247904D02*
D03*
X546354Y145542D02*
D03*
X335280Y134874D02*
D03*
X419608Y188000D02*
D03*
X226060Y148590D02*
D03*
X373380Y196342D02*
D03*
X391160Y231648D02*
D03*
X21590Y53340D02*
D03*
X69850Y149098D02*
D03*
X122936Y139954D02*
D03*
X56682Y53594D02*
D03*
X35052Y44450D02*
D03*
X134620Y175260D02*
D03*
X16510Y131826D02*
D03*
X415570Y208788D02*
D03*
X427736Y162052D02*
D03*
X528828Y70104D02*
D03*
X335280Y119380D02*
D03*
X355346Y212090D02*
D03*
X534670Y345948D02*
D03*
X479552Y300990D02*
D03*
X313436Y120650D02*
D03*
X16510Y159766D02*
D03*
X20574Y90170D02*
D03*
D50*
X357632Y96774D02*
X375332Y79074D01*
X333234Y96774D02*
X357632D01*
X301434Y188080D02*
X333248D01*
X322820Y86360D02*
X333234Y96774D01*
X364490Y218080D02*
X366948D01*
X275082Y216680D02*
X277858Y219456D01*
X443230Y176943D02*
Y181864D01*
X444960Y173482D02*
Y175212D01*
Y152702D02*
Y173482D01*
Y109268D02*
Y152702D01*
X503640Y66040D02*
Y67056D01*
Y59690D02*
Y66040D01*
X451104Y99060D02*
X455168D01*
X448670Y69596D02*
Y96626D01*
Y60960D02*
Y69596D01*
X342392Y35560D02*
Y39370D01*
X185060Y219710D02*
Y227584D01*
X222820Y160528D02*
Y162938D01*
X7366Y154432D02*
Y198120D01*
X158496Y60300D02*
X159893Y61697D01*
X94254Y67056D02*
X105410D01*
X83054Y73660D02*
X94254D01*
X10617Y81070D02*
X19054D01*
X7854Y73660D02*
X19054D01*
X560324Y295656D02*
X579120Y276860D01*
X560324Y295656D02*
Y374650D01*
X550164Y384810D02*
X560324Y374650D01*
X518160Y384810D02*
X550164D01*
X516128Y382778D02*
X518160Y384810D01*
X516128Y343662D02*
Y382778D01*
Y343662D02*
X534670Y325120D01*
Y301820D02*
Y325120D01*
X10160Y224830D02*
X15310D01*
X7366Y222036D02*
X10160Y224830D01*
X7366Y198120D02*
Y222036D01*
Y198120D02*
X16256Y189230D01*
X48260D01*
X81940Y155550D01*
Y127000D02*
Y155550D01*
X165710Y55880D02*
X207010D01*
X159893Y61697D02*
X165710Y55880D01*
X159893Y61697D02*
X160630Y71120D01*
X7366Y154432D02*
X11938Y149860D01*
X34290D01*
X10160Y110490D02*
X16660D01*
X7620Y107950D02*
X10160Y110490D01*
X7620Y84066D02*
Y107950D01*
Y84066D02*
X10617Y81070D01*
X19054Y76300D02*
Y81070D01*
X252730Y151130D02*
X267208D01*
X272288Y146050D01*
X281940D01*
X269240Y143002D02*
X272288Y146050D01*
X269240Y93980D02*
Y143002D01*
X501100Y69596D02*
X503640Y67056D01*
X448670Y69596D02*
X501100D01*
X374290Y155330D02*
Y171154D01*
X356132Y189312D02*
X374290Y171154D01*
X356132Y189312D02*
Y190572D01*
X364466Y198906D01*
Y215598D01*
X366948Y218080D01*
X392040D01*
X344290Y227584D02*
Y235830D01*
Y227584D02*
X346576Y225298D01*
X357272D01*
X364490Y218080D01*
X269240Y93980D02*
X315200D01*
X322820Y86360D01*
X529040Y165100D02*
Y246084D01*
X534670Y251714D01*
Y301820D01*
X281940Y146050D02*
X290830D01*
X292910Y148130D01*
X222820Y160528D02*
X225546Y157802D01*
X242384Y151130D02*
X252730D01*
X333248Y188080D02*
X344290Y199122D01*
X443230Y176943D02*
X444960Y175212D01*
Y109268D02*
X455168Y99060D01*
X466015D01*
X447652Y150010D02*
X450889D01*
X444960Y152702D02*
X447652Y150010D01*
X138176Y353314D02*
X153670Y337820D01*
X40640Y353314D02*
X138176D01*
X32410Y345084D02*
X40640Y353314D01*
X32410Y255270D02*
Y345084D01*
X448670Y96626D02*
X451104Y99060D01*
X392040Y218080D02*
X423938D01*
X433230Y208788D01*
Y192360D02*
Y208788D01*
X274730Y216680D02*
X275082D01*
X185060Y227584D02*
X187092Y229616D01*
X198820Y131130D02*
Y142460D01*
X209282Y152922D01*
X212804D01*
X222820Y162938D01*
X185060Y290350D02*
X207130Y312420D01*
X404220Y85530D02*
Y88900D01*
X397764Y79074D02*
X404220Y85530D01*
X375332Y79074D02*
X397764D01*
X529040Y91440D02*
Y165100D01*
X503640Y66040D02*
X529040Y91440D01*
X472800Y325120D02*
Y339090D01*
X464418Y316738D02*
X472800Y325120D01*
X430784Y316738D02*
X464418D01*
X416920Y302874D02*
X430784Y316738D01*
X416920Y274320D02*
Y302874D01*
X7854Y70550D02*
Y73660D01*
X19054D02*
Y76300D01*
X94254Y70550D02*
Y73660D01*
X83054D02*
Y76300D01*
X179070Y312420D02*
X207130D01*
X153670Y337820D02*
X179070Y312420D01*
X342392Y39370D02*
X344410D01*
X287020Y35560D02*
X342392D01*
X287020D02*
Y55880D01*
X292340D01*
X322820Y86360D01*
X403056Y288184D02*
X416920Y274320D01*
X379984Y288184D02*
X403056D01*
X367390Y275590D02*
X379984Y288184D01*
X94254Y67056D02*
Y70550D01*
X105410Y67056D02*
X112166Y60300D01*
X158496D01*
X342004Y225298D02*
X344290Y227584D01*
X433230Y179578D02*
Y192360D01*
Y179578D02*
X440944D01*
X443230Y181864D01*
Y192360D01*
X482194Y108560D02*
X489025D01*
X472694Y99060D02*
X482194Y108560D01*
X466015Y99060D02*
X472694D01*
X140970Y219710D02*
X185060D01*
X32410Y248494D02*
Y255270D01*
X15310Y231394D02*
X32410Y248494D01*
X15310Y224830D02*
Y231394D01*
X7854Y28750D02*
Y70550D01*
X95758Y124460D02*
X107120D01*
X93218Y127000D02*
X95758Y124460D01*
X81940Y127000D02*
X93218D01*
X81940Y116078D02*
Y127000D01*
Y116078D02*
X83210Y114808D01*
Y104140D02*
Y114808D01*
X94254Y28750D02*
Y67056D01*
X83210Y90072D02*
Y104140D01*
X83054Y89916D02*
X83210Y90072D01*
X83054Y76300D02*
Y89916D01*
X162120Y92168D02*
Y111760D01*
X160630Y90678D02*
X162120Y92168D01*
X160630Y71120D02*
Y90678D01*
X185060Y227584D02*
Y290350D01*
X207130Y312420D02*
X214750Y320040D01*
X331576Y225298D02*
X342004D01*
X329290Y227584D02*
X331576Y225298D01*
X329290Y227584D02*
Y235830D01*
X252730Y233680D02*
Y239776D01*
X255524Y242570D01*
X321360Y281482D02*
Y285496D01*
X319024Y279146D02*
X321360Y281482D01*
X255524Y242570D02*
X284734D01*
X344290Y199122D02*
Y227584D01*
X214750Y320040D02*
X321056D01*
X321360Y285496D02*
X357484D01*
X367390Y275590D01*
X321056Y320040D02*
X326898Y314198D01*
X321360Y285496D02*
Y287570D01*
X326898Y294640D02*
Y314198D01*
X323850Y291592D02*
X326898Y294640D01*
X321360Y291592D02*
X323850D01*
X321360Y287570D02*
Y291592D01*
X292910Y148130D02*
Y180642D01*
X187092Y229616D02*
X212660D01*
X222820Y162938D02*
Y171130D01*
Y219456D01*
X212660Y229616D02*
X222820Y219456D01*
X295860Y281990D02*
Y287570D01*
X298704Y279146D02*
X319024D01*
X295860Y281990D02*
X298704Y279146D01*
X277858Y219456D02*
X284734Y226332D01*
X285732Y227330D01*
X284734Y226332D02*
Y242570D01*
X282702Y219456D02*
X284734Y221488D01*
X274730Y216680D02*
Y219456D01*
X277858D02*
X282702D01*
X284734Y221488D02*
Y226332D01*
X274730Y219456D02*
X277858D01*
X285732Y227330D02*
X289814D01*
X235712Y157802D02*
X242384Y151130D01*
X225546Y157802D02*
X235712D01*
X297332Y185064D02*
X298418D01*
X301434Y188080D01*
X292910Y180642D02*
X297332Y185064D01*
X323826Y110260D02*
X341376D01*
X313436Y120650D02*
X323826Y110260D01*
X341376D02*
X344424Y113308D01*
X308037Y105204D02*
X384858D01*
X296950Y116291D02*
X308037Y105204D01*
X384858D02*
X391414Y111760D01*
X311520Y193100D02*
X311540Y193080D01*
X295724Y193100D02*
X311520D01*
X294640Y194184D02*
X295724Y193100D01*
X233680Y196850D02*
X236780D01*
X237770Y197840D01*
Y291607D01*
X239393Y293230D01*
X257770D01*
X266540Y284460D01*
Y283210D02*
Y284460D01*
X303622Y198100D02*
X311520D01*
X298418Y203304D02*
X303622Y198100D01*
X311520D02*
X311540Y198080D01*
X289063Y207344D02*
X300091D01*
X311520Y183060D02*
X311540Y183080D01*
X287516Y211510D02*
X288218D01*
X302127Y183060D02*
X311520D01*
X303375Y204060D02*
X304100D01*
X284799Y203080D02*
X289063Y207344D01*
X264922Y207772D02*
X283778D01*
X300091Y207344D02*
X303375Y204060D01*
X299696Y181024D02*
X300091D01*
X296950Y178278D02*
X299696Y181024D01*
X288218Y211510D02*
X298934Y222226D01*
X283778Y207772D02*
X287516Y211510D01*
X290862Y203304D02*
X298418D01*
X285520Y197962D02*
X290862Y203304D01*
X284480Y203080D02*
X284799D01*
X304100Y204060D02*
X305060Y203100D01*
X300091Y181024D02*
X302127Y183060D01*
X281940Y187412D02*
X285520Y190992D01*
Y197962D01*
X300990Y164338D02*
X306578Y158750D01*
X302868Y178080D02*
X311540D01*
X300990Y176202D02*
X302868Y178080D01*
X300990Y164338D02*
Y176202D01*
X276352Y194952D02*
X284480Y203080D01*
X281940Y163830D02*
Y187412D01*
X296950Y116291D02*
Y178278D01*
X276352Y177800D02*
Y194952D01*
X298934Y222226D02*
Y235990D01*
X267462Y168910D02*
X276352Y177800D01*
X264922Y207772D02*
Y231648D01*
X266954Y233680D02*
X274730D01*
X264922Y231648D02*
X266954Y233680D01*
X252730Y168910D02*
Y216680D01*
X242824Y162560D02*
Y243840D01*
X245364Y160020D02*
X267208D01*
X242824Y162560D02*
X245364Y160020D01*
X242824Y243840D02*
X247396Y248412D01*
X286512D01*
X311540Y218080D02*
X323194D01*
X327152Y214122D01*
Y210058D02*
Y214122D01*
X324290Y164592D02*
X327084Y167386D01*
X321416Y173080D02*
X327152Y178816D01*
X327084Y167386D02*
X332418D01*
X311540Y173080D02*
X321416D01*
X332418Y167386D02*
X341308Y176276D01*
X324290Y155330D02*
Y164592D01*
X315214Y249360D02*
Y267922D01*
X335026Y265430D02*
X339290Y261166D01*
X324358Y254026D02*
X334290Y244094D01*
X339290Y235830D02*
Y261166D01*
X267208Y160020D02*
X271018Y163830D01*
X281940D01*
X246540Y273050D02*
X320342D01*
X286512Y248412D02*
X298934Y235990D01*
X246540Y273050D02*
Y283210D01*
X334290Y235830D02*
Y244094D01*
X252730Y168910D02*
X267462D01*
X324290Y235830D02*
Y240284D01*
X319786Y223080D02*
X324290Y227584D01*
X311540Y223080D02*
X319786D01*
X324290Y227584D02*
Y235830D01*
X320342Y273050D02*
X325906Y278614D01*
X315214Y267922D02*
X320342Y273050D01*
X325906Y278614D02*
X348890D01*
Y275590D02*
Y278614D01*
X321360Y299170D02*
Y310338D01*
X315214Y249360D02*
X324290Y240284D01*
X295860Y299170D02*
Y309830D01*
X300736Y314706D01*
X316992D01*
X321360Y310338D01*
X272288Y299170D02*
X295860D01*
X266540Y283210D02*
Y293422D01*
X272288Y299170D01*
X197010Y259936D02*
Y280670D01*
X15310Y201930D02*
X81210D01*
X469900Y143510D02*
Y150010D01*
X496570Y373820D02*
X509270D01*
X16660Y119990D02*
X41760D01*
X68554Y76300D02*
Y87884D01*
X64110Y92328D02*
X68554Y87884D01*
X64110Y92328D02*
Y104140D01*
X48554Y69810D02*
Y76300D01*
Y69810D02*
X50800Y67564D01*
X58554D01*
Y76300D01*
X349645Y49135D02*
X359410Y39370D01*
X338836Y49135D02*
X349645D01*
X335421Y45720D02*
X338836Y49135D01*
X295910Y45720D02*
X335421D01*
X81210Y201930D02*
Y202070D01*
X51410Y231870D02*
X81210Y202070D01*
X51410Y231870D02*
Y255270D01*
X198374Y149860D02*
X207772Y159258D01*
Y183134D01*
X203560Y187346D02*
X207772Y183134D01*
X203560Y187346D02*
Y219710D01*
X53290Y149860D02*
Y170688D01*
X44948Y179030D02*
X53290Y170688D01*
X15310Y179030D02*
X44948D01*
X162120Y200660D02*
X186944D01*
X198820Y188784D01*
Y171130D02*
Y188784D01*
X130048Y111760D02*
X141630Y100178D01*
Y71120D02*
Y100178D01*
X41760Y110490D02*
X53086D01*
X56642Y114046D01*
X72136D02*
X75054Y111128D01*
X53554Y76300D02*
Y84836D01*
X43554D02*
X53554D01*
X43554Y76300D02*
Y84836D01*
X75054Y76300D02*
Y110874D01*
X56338Y116840D02*
X69088D01*
X53290Y119888D02*
X56338Y116840D01*
X53290Y119888D02*
Y149860D01*
X430170Y60960D02*
Y121772D01*
X421132Y130810D02*
X430170Y121772D01*
X393700Y130810D02*
X421132D01*
X466015Y89560D02*
X471932D01*
X480720Y80772D01*
X500888D02*
X510540Y90424D01*
X579120Y302260D02*
X592780Y288600D01*
Y138176D02*
Y288600D01*
X589392Y134788D02*
X592780Y138176D01*
X570182Y134788D02*
X589392D01*
X545084Y109690D02*
X570182Y134788D01*
X545084Y58420D02*
Y109690D01*
X536448Y49784D02*
X545084Y58420D01*
X487680Y49784D02*
X536448D01*
X115570Y111760D02*
X116586Y112776D01*
Y130810D01*
X97790D02*
X116586D01*
X97790D02*
Y158318D01*
X81210Y174898D02*
X97790Y158318D01*
X567436Y165354D02*
Y214376D01*
X579120Y226060D01*
X141630Y105664D02*
X154076Y118110D01*
X170688D01*
X178840Y109958D01*
Y83288D02*
Y109958D01*
Y83288D02*
X197358Y64770D01*
X231902D01*
X250240Y83108D01*
X81210Y194310D02*
Y201930D01*
X168402Y194310D02*
X168910Y193802D01*
X172720D01*
X175514Y191008D01*
Y154432D02*
Y191008D01*
X170942Y149860D02*
X175514Y154432D01*
X162120Y149860D02*
X170942D01*
X557022Y150368D02*
X561086Y146304D01*
X557022Y150368D02*
Y229362D01*
X579120Y251460D01*
X275910Y45720D02*
Y73914D01*
X354290Y124754D02*
X360680Y118364D01*
X354290Y124754D02*
Y155330D01*
X349290Y111490D02*
Y155330D01*
Y111490D02*
X351536Y109244D01*
X378738D01*
X382590Y113096D01*
Y120650D01*
X379290Y144204D02*
X391414Y132080D01*
Y111760D02*
Y132080D01*
X497840Y166670D02*
Y203200D01*
X487680Y156510D02*
X497840Y166670D01*
X469900Y156510D02*
X487680D01*
X349290Y235830D02*
Y244642D01*
X365712Y261064D01*
X403558D01*
X411638Y252984D01*
X436198D01*
X438230Y250952D01*
Y234360D02*
Y250952D01*
X443230Y234360D02*
Y251968D01*
X431038Y264160D02*
X443230Y251968D01*
X407598Y264160D02*
X431038D01*
X399507Y265104D02*
X406654D01*
X398420Y266192D02*
X399507Y265104D01*
X222820Y121920D02*
Y131130D01*
X215454Y114554D02*
X222820Y121920D01*
X185674Y114554D02*
X215454D01*
X169418Y130810D02*
X185674Y114554D01*
X154178Y130810D02*
X169418D01*
X146304Y138684D02*
X154178Y130810D01*
X146304Y138684D02*
Y147574D01*
X154940Y156210D01*
X169164D01*
X171450Y158496D01*
Y187960D01*
X162120D02*
X171450D01*
X392040Y183080D02*
X401066D01*
X402590Y181556D01*
Y142240D02*
Y181556D01*
Y142240D02*
X409194Y135636D01*
X430784D01*
X439928Y126492D01*
Y52411D02*
Y126492D01*
Y52411D02*
X441150Y51190D01*
X457082D01*
X461772Y55880D01*
X392040Y198080D02*
X422656D01*
X428960Y191776D01*
Y175538D02*
Y191776D01*
Y175538D02*
X440920Y163577D01*
Y154432D02*
Y163577D01*
X435356Y148868D02*
X440920Y154432D01*
X412726Y148868D02*
X435356D01*
X143256Y127000D02*
X145796Y124460D01*
X162120D01*
X354290Y235830D02*
Y243840D01*
X367474Y257024D01*
X394462D01*
X405106Y246380D01*
X433230D01*
Y234360D02*
Y246380D01*
X510540Y80772D02*
X515366Y85598D01*
Y113030D01*
X479148Y150010D02*
X496316Y132842D01*
X469900Y150010D02*
X479148D01*
X329290Y143870D02*
Y155330D01*
X325120Y139700D02*
X329290Y143870D01*
X316738Y139700D02*
X325120D01*
X495808Y332486D02*
X496570Y331724D01*
Y301820D02*
Y331724D01*
X379290Y236796D02*
X390398Y247904D01*
X379290Y235830D02*
Y236796D01*
X579120Y302260D02*
Y362966D01*
X552704Y389382D02*
X579120Y362966D01*
X516128Y389382D02*
X552704D01*
X509270Y382524D02*
X516128Y389382D01*
X509270Y373820D02*
Y382524D01*
X521970Y301820D02*
Y331470D01*
X509270Y344170D02*
X521970Y331470D01*
X509270Y344170D02*
Y373820D01*
X521970Y344932D02*
Y373820D01*
Y344932D02*
X546354Y320548D01*
Y145542D02*
Y320548D01*
X334290Y135864D02*
X335280Y134874D01*
X334290Y135864D02*
Y155330D01*
X141732Y200660D02*
X162120D01*
X131064Y211328D02*
X141732Y200660D01*
X131064Y211328D02*
Y237490D01*
X140970D01*
X392040Y193080D02*
X414528D01*
X419608Y188000D01*
X219456Y148590D02*
X226060D01*
X213614Y142748D02*
X219456Y148590D01*
X213614Y125476D02*
Y142748D01*
X207264Y119126D02*
X213614Y125476D01*
X191008Y119126D02*
X207264D01*
X172974Y137160D02*
X191008Y119126D01*
X162120Y137160D02*
X172974D01*
X379290Y155330D02*
Y191008D01*
X373956Y196342D02*
X379290Y191008D01*
X373380Y196342D02*
X373956D01*
X391160Y231648D02*
X392040Y230768D01*
Y223080D02*
Y230768D01*
X496504Y264414D02*
X508950Y251968D01*
X407344Y264414D02*
X496504D01*
X406654Y265104D02*
X407344Y264414D01*
X385720Y83114D02*
Y88900D01*
X379290Y144204D02*
Y155330D01*
X58554Y76300D02*
Y94234D01*
X51798Y100990D02*
X58554Y94234D01*
X41760Y100990D02*
X51798D01*
X207010Y73660D02*
X215392D01*
X222820Y81088D01*
X217010Y307300D02*
X222130Y312420D01*
X217010Y280670D02*
Y307300D01*
X337820Y86360D02*
X349146Y75034D01*
X406344D01*
X415781Y84470D01*
Y115333D01*
X410464Y120650D02*
X415781Y115333D01*
X402590Y120650D02*
X410464D01*
X510540Y165100D02*
Y184404D01*
X517840Y191704D01*
Y203200D01*
X521970Y289306D02*
Y301820D01*
X508950Y276286D02*
X521970Y289306D01*
X348890Y268224D02*
Y275590D01*
Y268224D02*
X351430Y265684D01*
X398420D01*
X16660Y100990D02*
X41760D01*
X38554Y60906D02*
Y76300D01*
X30988Y53340D02*
X38554Y60906D01*
X21590Y53340D02*
X30988D01*
X62840Y142088D02*
X69850Y149098D01*
X62840Y127000D02*
Y142088D01*
X145542Y162560D02*
X162120D01*
X122936Y139954D02*
X145542Y162560D01*
X48554Y61722D02*
X56682Y53594D01*
X35052Y44450D02*
X43554Y52952D01*
Y76300D01*
X134620Y175260D02*
X162120D01*
X16510Y119990D02*
X16660D01*
X410358Y28956D02*
X430170Y48768D01*
X260096Y28956D02*
X410358D01*
X250240Y38812D02*
X260096Y28956D01*
X51410Y255270D02*
X54610Y264160D01*
X128270Y337820D01*
X517840Y203200D02*
Y215138D01*
X508950Y224028D02*
X517840Y215138D01*
X508950Y224028D02*
Y236220D01*
X485140Y59690D02*
X485216Y52248D01*
X479552Y46584D02*
X485216Y52248D01*
X437110Y46584D02*
X479552D01*
X430170Y53523D02*
X437110Y46584D01*
X496570Y364744D02*
Y373820D01*
X454300Y350922D02*
X468122Y364744D01*
X454300Y339090D02*
Y350922D01*
X411278Y213080D02*
X415570Y208788D01*
X392040Y213080D02*
X411278D01*
X438230Y223520D02*
Y234360D01*
Y223520D02*
X442802Y218948D01*
X453644D01*
X481076Y246380D01*
X497840D01*
Y203200D02*
Y246380D01*
X489025Y89560D02*
X496824D01*
X505811Y98547D01*
Y150080D01*
X497840Y158052D02*
X505811Y150080D01*
X433230Y219456D02*
Y234360D01*
Y219456D02*
X442374Y210312D01*
X451104D01*
X457708Y203708D01*
X457581Y169037D02*
X457708Y203708D01*
X451104Y162306D02*
X457581Y169037D01*
X488950Y181864D02*
Y236220D01*
X479552Y172466D02*
X488950Y181864D01*
X461010Y172466D02*
X479552D01*
X451104Y162306D02*
X461010Y172466D01*
X489025Y99060D02*
X501142Y100330D01*
Y113792D01*
X491280Y123654D02*
X501142Y113792D01*
X478580Y123654D02*
X491280D01*
X460034Y142200D02*
X478580Y123654D01*
X460034Y142200D02*
Y151644D01*
X455168Y156510D02*
X460034Y151644D01*
X427736Y162052D02*
Y162680D01*
X402336Y188080D02*
X427736Y162680D01*
X392040Y188080D02*
X402336D01*
X579120Y200660D02*
X588740Y191040D01*
Y143764D02*
Y191040D01*
X583914Y138938D02*
X588740Y143764D01*
X566674Y138938D02*
X583914D01*
X536448Y108712D02*
X566674Y138938D01*
X536448Y77724D02*
Y108712D01*
X528828Y70104D02*
X536448Y77724D01*
X324080Y130580D02*
X335280Y119380D01*
X312928Y130580D02*
X324080D01*
X307618Y135890D02*
X312928Y130580D01*
X307618Y135890D02*
Y143510D01*
X315722Y151614D01*
X311540Y168080D02*
X315722D01*
X344290Y155330D02*
Y164592D01*
X352010Y172312D01*
Y208754D01*
X355346Y212090D01*
X534670Y345948D02*
Y373820D01*
X509270Y292100D02*
Y301820D01*
X505968Y288798D02*
X509270Y292100D01*
X491744Y288798D02*
X505968D01*
X479552Y300990D02*
X491744Y288798D01*
X344424Y113308D02*
Y138884D01*
X339290Y144018D02*
X344424Y138884D01*
X339290Y144018D02*
Y155330D01*
X15310Y160966D02*
Y179030D01*
Y160966D02*
X16510Y159766D01*
X20574Y90170D02*
X27054Y83690D01*
Y76300D02*
Y83690D01*
X107120Y111760D02*
X115570D01*
X130048D01*
X141630Y100178D02*
Y105664D01*
X81210Y174898D02*
Y194310D01*
X170942Y149860D02*
X198374D01*
X250240Y38812D02*
Y83108D01*
Y93980D01*
X385720Y83114D02*
X391470D01*
X391414Y132080D02*
X393700Y129794D01*
X81210Y194310D02*
X168402D01*
X430170Y48768D02*
Y53523D01*
Y60960D01*
X391470Y83114D02*
X391488Y83132D01*
X393700Y85344D01*
Y129794D01*
Y130810D01*
X480720Y80772D02*
X500888D01*
X510540D01*
X485216Y52248D02*
X487680Y49784D01*
X510540Y90424D02*
Y165100D01*
X407344Y264414D02*
X407598Y264160D01*
X398420Y265684D02*
Y266192D01*
Y274320D01*
X468122Y364744D02*
X496570D01*
X508950Y236220D02*
Y251968D01*
Y276286D01*
X48554Y61722D02*
Y69810D01*
X16510Y119990D02*
Y131826D01*
X497840Y158052D02*
Y166670D01*
X450889Y156510D02*
X451104D01*
X455168D01*
X451104D02*
Y162306D01*
X315722Y151614D02*
Y168080D01*
X222820Y81088D02*
Y121920D01*
X69088Y116840D02*
X71882Y114046D01*
X75054Y110874D01*
Y111128D01*
X56642Y114046D02*
X71882D01*
X72136D01*
M02*
